<mxfile host="Electron" agent="Mozilla/5.0 (Windows NT 10.0; Win64; x64) AppleWebKit/537.36 (KHTML, like Gecko) draw.io/24.7.17 Chrome/128.0.6613.36 Electron/32.0.1 Safari/537.36" version="24.7.17">
  <diagram id="R2lEEEUBdFMjLlhIrx00" name="Page-1">
    <mxGraphModel dx="1434" dy="836" grid="1" gridSize="10" guides="1" tooltips="1" connect="1" arrows="1" fold="1" page="1" pageScale="1" pageWidth="850" pageHeight="1100" math="0" shadow="0" extFonts="Permanent Marker^https://fonts.googleapis.com/css?family=Permanent+Marker">
      <root>
        <mxCell id="0" />
        <mxCell id="1" parent="0" />
        <mxCell id="sQxFZhmoRU4-G_I5SNlf-1" value="Источник" style="swimlane;fontStyle=0;childLayout=stackLayout;horizontal=1;startSize=30;horizontalStack=0;resizeParent=1;resizeParentMax=0;resizeLast=0;collapsible=1;marginBottom=0;whiteSpace=wrap;html=1;" vertex="1" parent="1">
          <mxGeometry x="130" y="220" width="140" height="90" as="geometry" />
        </mxCell>
        <mxCell id="sQxFZhmoRU4-G_I5SNlf-56" value="название: string" style="text;html=1;align=center;verticalAlign=middle;resizable=0;points=[];autosize=1;strokeColor=none;fillColor=none;" vertex="1" parent="sQxFZhmoRU4-G_I5SNlf-1">
          <mxGeometry y="30" width="140" height="30" as="geometry" />
        </mxCell>
        <mxCell id="sQxFZhmoRU4-G_I5SNlf-48" value="Описание: string" style="text;html=1;align=center;verticalAlign=middle;resizable=0;points=[];autosize=1;strokeColor=none;fillColor=none;" vertex="1" parent="sQxFZhmoRU4-G_I5SNlf-1">
          <mxGeometry y="60" width="140" height="30" as="geometry" />
        </mxCell>
        <mxCell id="sQxFZhmoRU4-G_I5SNlf-5" value="Сценарий" style="swimlane;fontStyle=0;childLayout=stackLayout;horizontal=1;startSize=30;horizontalStack=0;resizeParent=1;resizeParentMax=0;resizeLast=0;collapsible=1;marginBottom=0;whiteSpace=wrap;html=1;" vertex="1" parent="1">
          <mxGeometry x="400" y="220" width="140" height="90" as="geometry" />
        </mxCell>
        <mxCell id="sQxFZhmoRU4-G_I5SNlf-64" value="Источники[]" style="text;html=1;align=center;verticalAlign=middle;resizable=0;points=[];autosize=1;strokeColor=none;fillColor=none;" vertex="1" parent="sQxFZhmoRU4-G_I5SNlf-5">
          <mxGeometry y="30" width="140" height="30" as="geometry" />
        </mxCell>
        <mxCell id="sQxFZhmoRU4-G_I5SNlf-65" value="Исполнители: array[]" style="text;html=1;align=center;verticalAlign=middle;resizable=0;points=[];autosize=1;strokeColor=none;fillColor=none;" vertex="1" parent="sQxFZhmoRU4-G_I5SNlf-5">
          <mxGeometry y="60" width="140" height="30" as="geometry" />
        </mxCell>
        <mxCell id="sQxFZhmoRU4-G_I5SNlf-9" value="Переменная (путь к полю)" style="swimlane;fontStyle=0;childLayout=stackLayout;horizontal=1;startSize=30;horizontalStack=0;resizeParent=1;resizeParentMax=0;resizeLast=0;collapsible=1;marginBottom=0;whiteSpace=wrap;html=1;" vertex="1" parent="1">
          <mxGeometry x="680" y="600" width="140" height="90" as="geometry">
            <mxRectangle x="620" y="600" width="190" height="30" as="alternateBounds" />
          </mxGeometry>
        </mxCell>
        <mxCell id="sQxFZhmoRU4-G_I5SNlf-32" value="Тип: string" style="text;html=1;align=center;verticalAlign=middle;resizable=0;points=[];autosize=1;strokeColor=none;fillColor=none;" vertex="1" parent="sQxFZhmoRU4-G_I5SNlf-9">
          <mxGeometry y="30" width="140" height="30" as="geometry" />
        </mxCell>
        <mxCell id="sQxFZhmoRU4-G_I5SNlf-39" value="Значение: all" style="text;html=1;align=center;verticalAlign=middle;resizable=0;points=[];autosize=1;strokeColor=none;fillColor=none;" vertex="1" parent="sQxFZhmoRU4-G_I5SNlf-9">
          <mxGeometry y="60" width="140" height="30" as="geometry" />
        </mxCell>
        <mxCell id="sQxFZhmoRU4-G_I5SNlf-17" value="Рецепт" style="swimlane;fontStyle=0;childLayout=stackLayout;horizontal=1;startSize=30;horizontalStack=0;resizeParent=1;resizeParentMax=0;resizeLast=0;collapsible=1;marginBottom=0;whiteSpace=wrap;html=1;" vertex="1" parent="1">
          <mxGeometry x="390" y="650" width="140" height="60" as="geometry" />
        </mxCell>
        <mxCell id="sQxFZhmoRU4-G_I5SNlf-36" value="Ингредиенты: array[]" style="text;html=1;align=center;verticalAlign=middle;resizable=0;points=[];autosize=1;strokeColor=none;fillColor=none;" vertex="1" parent="sQxFZhmoRU4-G_I5SNlf-17">
          <mxGeometry y="30" width="140" height="30" as="geometry" />
        </mxCell>
        <mxCell id="sQxFZhmoRU4-G_I5SNlf-21" value="Ингредиент" style="swimlane;fontStyle=0;childLayout=stackLayout;horizontal=1;startSize=30;horizontalStack=0;resizeParent=1;resizeParentMax=0;resizeLast=0;collapsible=1;marginBottom=0;whiteSpace=wrap;html=1;" vertex="1" parent="1">
          <mxGeometry x="390" y="840" width="140" height="120" as="geometry" />
        </mxCell>
        <mxCell id="sQxFZhmoRU4-G_I5SNlf-38" value="Тип: string" style="text;html=1;align=center;verticalAlign=middle;resizable=0;points=[];autosize=1;strokeColor=none;fillColor=none;" vertex="1" parent="sQxFZhmoRU4-G_I5SNlf-21">
          <mxGeometry y="30" width="140" height="30" as="geometry" />
        </mxCell>
        <mxCell id="sQxFZhmoRU4-G_I5SNlf-49" value="Название: string" style="text;html=1;align=center;verticalAlign=middle;resizable=0;points=[];autosize=1;strokeColor=none;fillColor=none;" vertex="1" parent="sQxFZhmoRU4-G_I5SNlf-21">
          <mxGeometry y="60" width="140" height="30" as="geometry" />
        </mxCell>
        <mxCell id="sQxFZhmoRU4-G_I5SNlf-51" value="Значение: all" style="text;html=1;align=center;verticalAlign=middle;resizable=0;points=[];autosize=1;strokeColor=none;fillColor=none;" vertex="1" parent="sQxFZhmoRU4-G_I5SNlf-21">
          <mxGeometry y="90" width="140" height="30" as="geometry" />
        </mxCell>
        <mxCell id="sQxFZhmoRU4-G_I5SNlf-30" value="Исполнитель" style="swimlane;fontStyle=0;childLayout=stackLayout;horizontal=1;startSize=30;horizontalStack=0;resizeParent=1;resizeParentMax=0;resizeLast=0;collapsible=1;marginBottom=0;whiteSpace=wrap;html=1;" vertex="1" parent="1">
          <mxGeometry x="400" y="410" width="145" height="60" as="geometry" />
        </mxCell>
        <mxCell id="sQxFZhmoRU4-G_I5SNlf-37" value="Рецепты: array[рецепт]" style="text;html=1;align=center;verticalAlign=middle;resizable=0;points=[];autosize=1;strokeColor=none;fillColor=none;" vertex="1" parent="sQxFZhmoRU4-G_I5SNlf-30">
          <mxGeometry y="30" width="145" height="30" as="geometry" />
        </mxCell>
        <mxCell id="sQxFZhmoRU4-G_I5SNlf-31" value="Операция" style="swimlane;fontStyle=0;childLayout=stackLayout;horizontal=1;startSize=30;horizontalStack=0;resizeParent=1;resizeParentMax=0;resizeLast=0;collapsible=1;marginBottom=0;whiteSpace=wrap;html=1;" vertex="1" parent="1">
          <mxGeometry x="650" y="980" width="140" height="60" as="geometry" />
        </mxCell>
        <mxCell id="sQxFZhmoRU4-G_I5SNlf-35" value="Название: string" style="text;html=1;align=center;verticalAlign=middle;resizable=0;points=[];autosize=1;strokeColor=none;fillColor=none;" vertex="1" parent="sQxFZhmoRU4-G_I5SNlf-31">
          <mxGeometry y="30" width="140" height="30" as="geometry" />
        </mxCell>
        <mxCell id="sQxFZhmoRU4-G_I5SNlf-42" value="" style="endArrow=diamondThin;endFill=1;endSize=24;html=1;rounded=0;entryX=0.5;entryY=1;entryDx=0;entryDy=0;exitX=0.5;exitY=0;exitDx=0;exitDy=0;" edge="1" parent="1" source="sQxFZhmoRU4-G_I5SNlf-21" target="sQxFZhmoRU4-G_I5SNlf-17">
          <mxGeometry width="160" relative="1" as="geometry">
            <mxPoint x="350" y="770" as="sourcePoint" />
            <mxPoint x="510" y="770" as="targetPoint" />
          </mxGeometry>
        </mxCell>
        <mxCell id="sQxFZhmoRU4-G_I5SNlf-43" value="" style="endArrow=block;endFill=1;html=1;edgeStyle=orthogonalEdgeStyle;align=left;verticalAlign=top;rounded=0;entryX=0.479;entryY=0.967;entryDx=0;entryDy=0;entryPerimeter=0;exitX=1;exitY=0.5;exitDx=0;exitDy=0;" edge="1" parent="1" source="sQxFZhmoRU4-G_I5SNlf-21" target="sQxFZhmoRU4-G_I5SNlf-39">
          <mxGeometry x="-1" relative="1" as="geometry">
            <mxPoint x="520" y="720" as="sourcePoint" />
            <mxPoint x="680" y="720" as="targetPoint" />
          </mxGeometry>
        </mxCell>
        <mxCell id="sQxFZhmoRU4-G_I5SNlf-45" value="" style="endArrow=block;endFill=1;html=1;edgeStyle=orthogonalEdgeStyle;align=left;verticalAlign=top;rounded=0;entryX=0.5;entryY=0;entryDx=0;entryDy=0;exitX=1.014;exitY=0.867;exitDx=0;exitDy=0;exitPerimeter=0;" edge="1" parent="1" source="sQxFZhmoRU4-G_I5SNlf-38" target="sQxFZhmoRU4-G_I5SNlf-31">
          <mxGeometry x="-1" relative="1" as="geometry">
            <mxPoint x="540" y="830" as="sourcePoint" />
            <mxPoint x="687" y="790" as="targetPoint" />
          </mxGeometry>
        </mxCell>
        <mxCell id="sQxFZhmoRU4-G_I5SNlf-53" value="" style="endArrow=diamondThin;endFill=1;endSize=24;html=1;rounded=0;entryX=0;entryY=0.5;entryDx=0;entryDy=0;exitX=1.021;exitY=0.4;exitDx=0;exitDy=0;exitPerimeter=0;" edge="1" parent="1" source="sQxFZhmoRU4-G_I5SNlf-56" target="sQxFZhmoRU4-G_I5SNlf-5">
          <mxGeometry width="160" relative="1" as="geometry">
            <mxPoint x="760" y="250" as="sourcePoint" />
            <mxPoint x="580" y="270" as="targetPoint" />
          </mxGeometry>
        </mxCell>
        <mxCell id="sQxFZhmoRU4-G_I5SNlf-55" value="" style="endArrow=diamondThin;endFill=1;endSize=24;html=1;rounded=0;entryX=0.5;entryY=1;entryDx=0;entryDy=0;exitX=0.5;exitY=0;exitDx=0;exitDy=0;" edge="1" parent="1" source="sQxFZhmoRU4-G_I5SNlf-30" target="sQxFZhmoRU4-G_I5SNlf-5">
          <mxGeometry width="160" relative="1" as="geometry">
            <mxPoint x="470" y="400" as="sourcePoint" />
            <mxPoint x="410" y="520" as="targetPoint" />
          </mxGeometry>
        </mxCell>
        <mxCell id="sQxFZhmoRU4-G_I5SNlf-58" value="Артефакт" style="swimlane;fontStyle=0;childLayout=stackLayout;horizontal=1;startSize=30;horizontalStack=0;resizeParent=1;resizeParentMax=0;resizeLast=0;collapsible=1;marginBottom=0;whiteSpace=wrap;html=1;" vertex="1" parent="1">
          <mxGeometry x="620" y="190" width="140" height="120" as="geometry" />
        </mxCell>
        <mxCell id="sQxFZhmoRU4-G_I5SNlf-60" value="Модель: function" style="text;html=1;align=center;verticalAlign=middle;resizable=0;points=[];autosize=1;strokeColor=none;fillColor=none;" vertex="1" parent="sQxFZhmoRU4-G_I5SNlf-58">
          <mxGeometry y="30" width="140" height="30" as="geometry" />
        </mxCell>
        <mxCell id="sQxFZhmoRU4-G_I5SNlf-59" value="Вход: dictionary" style="text;html=1;align=center;verticalAlign=middle;resizable=0;points=[];autosize=1;strokeColor=none;fillColor=none;" vertex="1" parent="sQxFZhmoRU4-G_I5SNlf-58">
          <mxGeometry y="60" width="140" height="30" as="geometry" />
        </mxCell>
        <mxCell id="sQxFZhmoRU4-G_I5SNlf-47" value="Выход: array[float]" style="text;html=1;align=center;verticalAlign=middle;resizable=0;points=[];autosize=1;strokeColor=none;fillColor=none;" vertex="1" parent="sQxFZhmoRU4-G_I5SNlf-58">
          <mxGeometry y="90" width="140" height="30" as="geometry" />
        </mxCell>
        <mxCell id="sQxFZhmoRU4-G_I5SNlf-61" value="" style="endArrow=diamondThin;endFill=1;endSize=24;html=1;rounded=0;entryX=-0.021;entryY=0.433;entryDx=0;entryDy=0;entryPerimeter=0;exitX=1;exitY=0.5;exitDx=0;exitDy=0;" edge="1" parent="1" source="sQxFZhmoRU4-G_I5SNlf-5" target="sQxFZhmoRU4-G_I5SNlf-59">
          <mxGeometry width="160" relative="1" as="geometry">
            <mxPoint x="170" y="370" as="sourcePoint" />
            <mxPoint x="330" y="370" as="targetPoint" />
          </mxGeometry>
        </mxCell>
        <mxCell id="sQxFZhmoRU4-G_I5SNlf-62" value="Ошибка" style="swimlane;fontStyle=0;childLayout=stackLayout;horizontal=1;startSize=30;horizontalStack=0;resizeParent=1;resizeParentMax=0;resizeLast=0;collapsible=1;marginBottom=0;whiteSpace=wrap;html=1;" vertex="1" parent="1">
          <mxGeometry x="150" y="790" width="145" height="90" as="geometry" />
        </mxCell>
        <mxCell id="sQxFZhmoRU4-G_I5SNlf-63" value="Тип: class" style="text;html=1;align=center;verticalAlign=middle;resizable=0;points=[];autosize=1;strokeColor=none;fillColor=none;" vertex="1" parent="sQxFZhmoRU4-G_I5SNlf-62">
          <mxGeometry y="30" width="145" height="30" as="geometry" />
        </mxCell>
        <mxCell id="sQxFZhmoRU4-G_I5SNlf-75" value="Описание: string" style="text;html=1;align=center;verticalAlign=middle;resizable=0;points=[];autosize=1;strokeColor=none;fillColor=none;" vertex="1" parent="sQxFZhmoRU4-G_I5SNlf-62">
          <mxGeometry y="60" width="145" height="30" as="geometry" />
        </mxCell>
        <mxCell id="sQxFZhmoRU4-G_I5SNlf-77" value="Валидатор" style="swimlane;fontStyle=0;childLayout=stackLayout;horizontal=1;startSize=30;horizontalStack=0;resizeParent=1;resizeParentMax=0;resizeLast=0;collapsible=1;marginBottom=0;whiteSpace=wrap;html=1;" vertex="1" parent="1">
          <mxGeometry x="150" y="570" width="140" height="120" as="geometry" />
        </mxCell>
        <mxCell id="sQxFZhmoRU4-G_I5SNlf-78" value="json схема: json" style="text;html=1;align=center;verticalAlign=middle;resizable=0;points=[];autosize=1;strokeColor=none;fillColor=none;" vertex="1" parent="sQxFZhmoRU4-G_I5SNlf-77">
          <mxGeometry y="30" width="140" height="30" as="geometry" />
        </mxCell>
        <mxCell id="sQxFZhmoRU4-G_I5SNlf-79" value="вход: json" style="text;html=1;align=center;verticalAlign=middle;resizable=0;points=[];autosize=1;strokeColor=none;fillColor=none;" vertex="1" parent="sQxFZhmoRU4-G_I5SNlf-77">
          <mxGeometry y="60" width="140" height="30" as="geometry" />
        </mxCell>
        <mxCell id="sQxFZhmoRU4-G_I5SNlf-76" value="результат: Ошибка" style="text;html=1;align=center;verticalAlign=middle;resizable=0;points=[];autosize=1;strokeColor=none;fillColor=none;" vertex="1" parent="sQxFZhmoRU4-G_I5SNlf-77">
          <mxGeometry y="90" width="140" height="30" as="geometry" />
        </mxCell>
        <mxCell id="sQxFZhmoRU4-G_I5SNlf-80" value="" style="endArrow=diamondThin;endFill=1;endSize=24;html=1;rounded=0;exitX=0.5;exitY=0;exitDx=0;exitDy=0;entryX=0.493;entryY=0.933;entryDx=0;entryDy=0;entryPerimeter=0;" edge="1" parent="1" source="sQxFZhmoRU4-G_I5SNlf-62" target="sQxFZhmoRU4-G_I5SNlf-76">
          <mxGeometry width="160" relative="1" as="geometry">
            <mxPoint x="220" y="780" as="sourcePoint" />
            <mxPoint x="220" y="690" as="targetPoint" />
          </mxGeometry>
        </mxCell>
        <mxCell id="sQxFZhmoRU4-G_I5SNlf-81" value="" style="endArrow=diamondThin;endFill=1;endSize=24;html=1;rounded=0;entryX=0;entryY=0;entryDx=0;entryDy=0;entryPerimeter=0;exitX=0.5;exitY=0;exitDx=0;exitDy=0;" edge="1" parent="1" source="sQxFZhmoRU4-G_I5SNlf-77" target="sQxFZhmoRU4-G_I5SNlf-37">
          <mxGeometry width="160" relative="1" as="geometry">
            <mxPoint x="160" y="450" as="sourcePoint" />
            <mxPoint x="320" y="450" as="targetPoint" />
            <Array as="points">
              <mxPoint x="220" y="440" />
            </Array>
          </mxGeometry>
        </mxCell>
        <mxCell id="sQxFZhmoRU4-G_I5SNlf-83" value="Постоянная БД&lt;br&gt;(PostgreSQL Repo)" style="swimlane;fontStyle=0;childLayout=stackLayout;horizontal=1;startSize=30;horizontalStack=0;resizeParent=1;resizeParentMax=0;resizeLast=0;collapsible=1;marginBottom=0;whiteSpace=wrap;html=1;" vertex="1" parent="1">
          <mxGeometry x="130" y="50" width="140" height="60" as="geometry" />
        </mxCell>
        <mxCell id="sQxFZhmoRU4-G_I5SNlf-85" value="Рецепт" style="text;html=1;align=center;verticalAlign=middle;resizable=0;points=[];autosize=1;strokeColor=none;fillColor=none;" vertex="1" parent="sQxFZhmoRU4-G_I5SNlf-83">
          <mxGeometry y="30" width="140" height="30" as="geometry" />
        </mxCell>
        <mxCell id="sQxFZhmoRU4-G_I5SNlf-86" value="" style="endArrow=diamondThin;endFill=1;endSize=24;html=1;rounded=0;entryX=0.493;entryY=1.067;entryDx=0;entryDy=0;entryPerimeter=0;exitX=0.5;exitY=0;exitDx=0;exitDy=0;" edge="1" parent="1" source="sQxFZhmoRU4-G_I5SNlf-1" target="sQxFZhmoRU4-G_I5SNlf-85">
          <mxGeometry width="160" relative="1" as="geometry">
            <mxPoint x="320" y="130" as="sourcePoint" />
            <mxPoint x="480" y="130" as="targetPoint" />
          </mxGeometry>
        </mxCell>
        <mxCell id="sQxFZhmoRU4-G_I5SNlf-87" value="" style="endArrow=diamondThin;endFill=1;endSize=24;html=1;rounded=0;exitX=0;exitY=0.25;exitDx=0;exitDy=0;entryX=1.007;entryY=0.1;entryDx=0;entryDy=0;entryPerimeter=0;" edge="1" parent="1" source="sQxFZhmoRU4-G_I5SNlf-17">
          <mxGeometry width="160" relative="1" as="geometry">
            <mxPoint x="330" y="580" as="sourcePoint" />
            <mxPoint x="270.98" y="83" as="targetPoint" />
            <Array as="points">
              <mxPoint x="340" y="350" />
            </Array>
          </mxGeometry>
        </mxCell>
        <mxCell id="sQxFZhmoRU4-G_I5SNlf-90" value="Временная БД&lt;br&gt;(Mongo Repo)" style="swimlane;fontStyle=0;childLayout=stackLayout;horizontal=1;startSize=30;horizontalStack=0;resizeParent=1;resizeParentMax=0;resizeLast=0;collapsible=1;marginBottom=0;whiteSpace=wrap;html=1;" vertex="1" parent="1">
          <mxGeometry x="300" y="50" width="140" height="60" as="geometry" />
        </mxCell>
        <mxCell id="sQxFZhmoRU4-G_I5SNlf-92" value="Рецепт" style="text;html=1;align=center;verticalAlign=middle;resizable=0;points=[];autosize=1;strokeColor=none;fillColor=none;" vertex="1" parent="sQxFZhmoRU4-G_I5SNlf-90">
          <mxGeometry y="30" width="140" height="30" as="geometry" />
        </mxCell>
        <mxCell id="sQxFZhmoRU4-G_I5SNlf-94" value="" style="endArrow=diamondThin;endFill=1;endSize=24;html=1;rounded=0;entryX=0.214;entryY=1.1;entryDx=0;entryDy=0;entryPerimeter=0;exitX=0.057;exitY=-0.05;exitDx=0;exitDy=0;exitPerimeter=0;" edge="1" parent="1" source="sQxFZhmoRU4-G_I5SNlf-17" target="sQxFZhmoRU4-G_I5SNlf-92">
          <mxGeometry width="160" relative="1" as="geometry">
            <mxPoint x="530" y="120" as="sourcePoint" />
            <mxPoint x="690" y="120" as="targetPoint" />
          </mxGeometry>
        </mxCell>
        <mxCell id="sQxFZhmoRU4-G_I5SNlf-99" value="Преобразователь" style="swimlane;fontStyle=0;childLayout=stackLayout;horizontal=1;startSize=30;horizontalStack=0;resizeParent=1;resizeParentMax=0;resizeLast=0;collapsible=1;marginBottom=0;whiteSpace=wrap;html=1;" vertex="1" parent="1">
          <mxGeometry x="390" y="517.99" width="140" height="60" as="geometry" />
        </mxCell>
        <mxCell id="sQxFZhmoRU4-G_I5SNlf-100" value="Рецепт" style="text;html=1;align=center;verticalAlign=middle;resizable=0;points=[];autosize=1;strokeColor=none;fillColor=none;" vertex="1" parent="sQxFZhmoRU4-G_I5SNlf-99">
          <mxGeometry y="30" width="140" height="30" as="geometry" />
        </mxCell>
        <mxCell id="sQxFZhmoRU4-G_I5SNlf-102" value="" style="endArrow=none;html=1;edgeStyle=orthogonalEdgeStyle;rounded=0;exitX=0.486;exitY=1.067;exitDx=0;exitDy=0;exitPerimeter=0;entryX=0.5;entryY=0;entryDx=0;entryDy=0;" edge="1" parent="1" source="sQxFZhmoRU4-G_I5SNlf-100" target="sQxFZhmoRU4-G_I5SNlf-17">
          <mxGeometry relative="1" as="geometry">
            <mxPoint x="470" y="630" as="sourcePoint" />
            <mxPoint x="630" y="630" as="targetPoint" />
          </mxGeometry>
        </mxCell>
        <mxCell id="sQxFZhmoRU4-G_I5SNlf-103" value="parent" style="edgeLabel;resizable=0;html=1;align=left;verticalAlign=bottom;" connectable="0" vertex="1" parent="sQxFZhmoRU4-G_I5SNlf-102">
          <mxGeometry x="-1" relative="1" as="geometry" />
        </mxCell>
        <mxCell id="sQxFZhmoRU4-G_I5SNlf-104" value="child" style="edgeLabel;resizable=0;html=1;align=right;verticalAlign=bottom;" connectable="0" vertex="1" parent="sQxFZhmoRU4-G_I5SNlf-102">
          <mxGeometry x="1" relative="1" as="geometry" />
        </mxCell>
        <mxCell id="sQxFZhmoRU4-G_I5SNlf-108" value="" style="endArrow=none;html=1;edgeStyle=orthogonalEdgeStyle;rounded=0;exitX=0.51;exitY=1.133;exitDx=0;exitDy=0;exitPerimeter=0;entryX=0.5;entryY=0;entryDx=0;entryDy=0;" edge="1" parent="1" source="sQxFZhmoRU4-G_I5SNlf-37" target="sQxFZhmoRU4-G_I5SNlf-99">
          <mxGeometry relative="1" as="geometry">
            <mxPoint x="580" y="492" as="sourcePoint" />
            <mxPoint x="582" y="550" as="targetPoint" />
          </mxGeometry>
        </mxCell>
        <mxCell id="sQxFZhmoRU4-G_I5SNlf-109" value="parent" style="edgeLabel;resizable=0;html=1;align=left;verticalAlign=bottom;" connectable="0" vertex="1" parent="sQxFZhmoRU4-G_I5SNlf-108">
          <mxGeometry x="-1" relative="1" as="geometry" />
        </mxCell>
        <mxCell id="sQxFZhmoRU4-G_I5SNlf-110" value="child" style="edgeLabel;resizable=0;html=1;align=right;verticalAlign=bottom;" connectable="0" vertex="1" parent="sQxFZhmoRU4-G_I5SNlf-108">
          <mxGeometry x="1" relative="1" as="geometry" />
        </mxCell>
        <mxCell id="sQxFZhmoRU4-G_I5SNlf-111" value="" style="endArrow=none;html=1;edgeStyle=orthogonalEdgeStyle;rounded=0;entryX=0.493;entryY=1.033;entryDx=0;entryDy=0;entryPerimeter=0;exitX=-0.014;exitY=0.033;exitDx=0;exitDy=0;exitPerimeter=0;" edge="1" parent="1" source="sQxFZhmoRU4-G_I5SNlf-100" target="sQxFZhmoRU4-G_I5SNlf-48">
          <mxGeometry relative="1" as="geometry">
            <mxPoint x="630" y="470" as="sourcePoint" />
            <mxPoint x="590" y="560" as="targetPoint" />
            <Array as="points">
              <mxPoint x="199" y="549" />
            </Array>
          </mxGeometry>
        </mxCell>
        <mxCell id="sQxFZhmoRU4-G_I5SNlf-112" value="parent" style="edgeLabel;resizable=0;html=1;align=left;verticalAlign=bottom;" connectable="0" vertex="1" parent="sQxFZhmoRU4-G_I5SNlf-111">
          <mxGeometry x="-1" relative="1" as="geometry" />
        </mxCell>
        <mxCell id="sQxFZhmoRU4-G_I5SNlf-113" value="child" style="edgeLabel;resizable=0;html=1;align=right;verticalAlign=bottom;" connectable="0" vertex="1" parent="sQxFZhmoRU4-G_I5SNlf-111">
          <mxGeometry x="1" relative="1" as="geometry">
            <mxPoint x="-9" y="19" as="offset" />
          </mxGeometry>
        </mxCell>
        <mxCell id="sQxFZhmoRU4-G_I5SNlf-114" value="Операция (lib)" style="swimlane;fontStyle=0;childLayout=stackLayout;horizontal=1;startSize=30;horizontalStack=0;resizeParent=1;resizeParentMax=0;resizeLast=0;collapsible=1;marginBottom=0;whiteSpace=wrap;html=1;" vertex="1" parent="1">
          <mxGeometry x="610" y="410" width="150" height="60" as="geometry" />
        </mxCell>
        <mxCell id="sQxFZhmoRU4-G_I5SNlf-115" value="функции: dict[string: func]" style="text;html=1;align=center;verticalAlign=middle;resizable=0;points=[];autosize=1;strokeColor=none;fillColor=none;" vertex="1" parent="sQxFZhmoRU4-G_I5SNlf-114">
          <mxGeometry y="30" width="150" height="30" as="geometry" />
        </mxCell>
        <mxCell id="sQxFZhmoRU4-G_I5SNlf-116" value="" style="endArrow=none;html=1;edgeStyle=orthogonalEdgeStyle;rounded=0;exitX=0.493;exitY=1.1;exitDx=0;exitDy=0;exitPerimeter=0;entryX=1.029;entryY=0.1;entryDx=0;entryDy=0;entryPerimeter=0;" edge="1" parent="1" source="sQxFZhmoRU4-G_I5SNlf-115" target="sQxFZhmoRU4-G_I5SNlf-100">
          <mxGeometry relative="1" as="geometry">
            <mxPoint x="645" y="515" as="sourcePoint" />
            <mxPoint x="647" y="585" as="targetPoint" />
            <Array as="points">
              <mxPoint x="684" y="551" />
            </Array>
          </mxGeometry>
        </mxCell>
      </root>
    </mxGraphModel>
  </diagram>
</mxfile>
